<svg xmlns="http://www.w3.org/2000/svg" viewBox="0 0 117.23 117.23"><defs><style>.cls-1{fill:#f6931d;}</style></defs><g id="Layer_2" data-name="Layer 2"><g id="Layer_1-2" data-name="Layer 1"><path class="cls-1" d="M109.26,45.69c-1-.21-2-.29-2.92-.55-4.81-1.31-6.79-5.33-4.89-10a46.34,46.34,0,0,1,4-6.82,7.71,7.71,0,0,0,.8-7.54C102.17,11.07,93.67,8.36,85,14.05a17.61,17.61,0,0,1-2.91,1.88,7,7,0,0,1-8.92-4,14.54,14.54,0,0,1-1-4.83C72.22,2.66,70,.49,65.74,0H52.87C49.1.46,47,2.57,46.69,6.38a31.88,31.88,0,0,1-1.06,4.84c-1.38,5.27-6,7.28-10.67,4.64-1.29-.73-2.5-1.61-3.75-2.42-6.18-4-9-3.78-14.45,1.2-6.26,5.69-6.77,9-2.49,16.4.83,1.43,1.87,2.73,2.62,4.21a7,7,0,0,1-4.22,10.28,41.46,41.46,0,0,1-6.33,1.08C2.71,47.2.46,48.83.26,53.07A97.6,97.6,0,0,0,.14,64.92c.26,3.51,1.82,5.41,5.35,6a53.26,53.26,0,0,1,7.25,1.58C17.85,74,19.42,78.38,16.56,83c-.79,1.26-1.76,2.39-2.62,3.61-4.45,6.28-4.3,8.66,1,14.17a35.61,35.61,0,0,0,4.72,4.38c3.32,2.4,6.58,2.61,10.08.28a67,67,0,0,1,6.1-4.23A6.52,6.52,0,0,1,45.39,105a30.31,30.31,0,0,1,1.29,5.81c.38,3.81,2.42,5.92,6.19,6.38H64.75c4.49-.37,6.58-3,7-7.32a19.9,19.9,0,0,1,.91-4.36,6.85,6.85,0,0,1,9.44-4.38,46.76,46.76,0,0,1,5.6,3.14c6,3.72,8.82,3.38,14-1.59,6.32-6.13,6.68-8.75,2.12-16.43a25,25,0,0,1-2.35-4.35c-1.75-5,.68-9.21,5.82-10.23,4.39-.87,9.53-.69,10-7.13V53.65C116.05,47.22,116.05,47.22,109.26,45.69Zm-51.33,35c-11.8,0-21.21-10.27-21.39-23-.17-12.89,10.53-20.8,20.25-21.16,13.88-.51,23.91,9.24,23.9,21.94C80.67,70.93,70.68,80.68,57.93,80.69Z"/></g></g></svg>