<svg width="44" height="29" viewBox="0 0 44 29" fill="none" xmlns="http://www.w3.org/2000/svg">
<path d="M2.3104 16.8086C3.20615 16.8086 4.10191 16.8086 5.00228 16.8086C6.43365 16.8086 7.86039 16.8086 9.29175 16.8086C9.61958 16.8086 9.95203 16.8086 10.2799 16.8086C10.7924 16.8086 11.2772 16.624 11.6789 16.3146C11.8544 16.213 11.9883 16.0745 12.0945 15.899C12.2976 15.6774 12.4361 15.4142 12.5054 15.1141C13.0502 13.7428 13.5905 12.376 14.1353 11.0047C15.0034 8.81149 15.8714 6.62289 16.7395 4.42967C16.938 3.92639 17.1365 3.42772 17.3351 2.92443C15.8529 2.92443 14.3662 2.92443 12.884 2.92443C13.1333 3.73246 13.3873 4.54049 13.6366 5.34851C14.2369 7.28778 14.8417 9.22705 15.442 11.1709C16.1715 13.5165 16.9011 15.8667 17.626 18.2123C18.2539 20.2439 18.8865 22.2709 19.5145 24.3025C19.8192 25.2906 20.1101 26.2833 20.4333 27.2622C20.4379 27.2761 20.4425 27.2899 20.4471 27.3038C20.5995 27.7886 20.8719 28.1903 21.2736 28.5043C21.6615 28.8044 22.1648 29.0214 22.6727 28.9983C23.0836 28.9798 23.4761 28.8737 23.8362 28.6843C24.3903 28.3935 24.6766 27.8578 24.8982 27.3038C25.4431 25.9324 25.9833 24.5657 26.5281 23.1944C27.3962 21.0012 28.2642 18.8126 29.1323 16.6193C29.3308 16.1161 29.5294 15.6174 29.7279 15.1141C28.9845 15.6774 28.2458 16.2453 27.5024 16.8086C28.3981 16.8086 29.2939 16.8086 30.1943 16.8086C31.6256 16.8086 33.0524 16.8086 34.4837 16.8086C34.8116 16.8086 35.144 16.8086 35.4718 16.8086C36.0628 16.8086 36.6862 16.5501 37.1064 16.1345C37.5081 15.7328 37.8082 15.0772 37.7805 14.5C37.7528 13.9044 37.5588 13.2857 37.1064 12.8655C36.6539 12.4499 36.0998 12.1914 35.4718 12.1914C34.5761 12.1914 33.6803 12.1914 32.7799 12.1914C31.3486 12.1914 29.9218 12.1914 28.4905 12.1914C28.1627 12.1914 27.8302 12.1914 27.5024 12.1914C26.9899 12.1914 26.505 12.376 26.1033 12.6854C25.9279 12.787 25.794 12.9255 25.6878 13.101C25.4846 13.3226 25.3461 13.5858 25.2768 13.8859C24.732 15.2572 24.1918 16.624 23.6469 17.9953C22.7789 20.1885 21.9108 22.3771 21.0428 24.5703C20.8442 25.0736 20.6457 25.5723 20.4471 26.0756C21.9293 26.0756 23.4161 26.0756 24.8982 26.0756C24.6489 25.2675 24.3949 24.4595 24.1456 23.6515C23.5454 21.7122 22.9405 19.773 22.3402 17.8291C21.6107 15.4835 20.8812 13.1333 20.1563 10.7877C19.5283 8.75608 18.8957 6.72909 18.2678 4.69748C17.963 3.70937 17.6721 2.71665 17.3489 1.73779C17.3443 1.72394 17.3397 1.71008 17.3351 1.69623C17.1827 1.21141 16.9103 0.80971 16.5086 0.495734C16.1207 0.195609 15.6175 -0.0214037 15.1095 0.00168276C14.6986 0.020152 14.3061 0.12635 13.946 0.315659C13.3919 0.606549 13.1056 1.14216 12.884 1.69623C12.3392 3.06757 11.7989 4.43429 11.2541 5.80563C10.3861 7.99884 9.518 10.1874 8.64995 12.3807C8.4514 12.8839 8.25286 13.3826 8.05432 13.8859C8.7977 13.3226 9.53647 12.7547 10.2799 12.1914C9.3841 12.1914 8.48834 12.1914 7.58797 12.1914C6.15661 12.1914 4.72986 12.1914 3.2985 12.1914C2.97067 12.1914 2.63823 12.1914 2.3104 12.1914C1.71938 12.1914 1.09605 12.4499 0.675875 12.8655C0.278787 13.2672 -0.0259545 13.9228 0.00174926 14.5C0.029453 15.0956 0.223379 15.7144 0.675875 16.1345C1.12837 16.5455 1.68706 16.8086 2.3104 16.8086Z" fill="white"/>
<path d="M39.2489 14.4998C39.2489 14.629 39.2397 14.7537 39.2258 14.883C39.2535 14.6798 39.2812 14.4721 39.3089 14.2689C39.272 14.5367 39.2073 14.7953 39.1058 15.0446C39.1843 14.8599 39.2627 14.6752 39.3366 14.4951C39.235 14.7399 39.1058 14.9615 38.9488 15.1739C39.0688 15.0169 39.1889 14.8645 39.3089 14.7075C39.1381 14.9292 38.9395 15.1277 38.7179 15.2986C38.8749 15.1785 39.0273 15.0585 39.1843 14.9384C38.9719 15.0954 38.7456 15.2247 38.5055 15.3263C38.6902 15.2478 38.8749 15.1693 39.055 15.0954C38.8056 15.197 38.5471 15.2616 38.2793 15.2986C38.4824 15.2709 38.6902 15.2431 38.8934 15.2154C38.6394 15.2431 38.3855 15.2431 38.1315 15.2154C38.3347 15.2431 38.5424 15.2709 38.7456 15.2986C38.4778 15.2616 38.2192 15.197 37.9699 15.0954C38.1546 15.1739 38.3393 15.2524 38.5194 15.3263C38.2746 15.2247 38.053 15.0954 37.8406 14.9384C37.9976 15.0585 38.15 15.1785 38.307 15.2986C38.0853 15.1277 37.8868 14.9292 37.716 14.7075C37.836 14.8645 37.956 15.0169 38.0761 15.1739C37.9191 14.9615 37.7898 14.7352 37.6882 14.4951C37.7667 14.6798 37.8452 14.8645 37.9191 15.0446C37.8175 14.7953 37.7529 14.5367 37.716 14.2689C37.7437 14.4721 37.7714 14.6798 37.7991 14.883C37.7714 14.629 37.7714 14.3751 37.7991 14.1211C37.7714 14.3243 37.7437 14.5321 37.716 14.7352C37.7529 14.4674 37.8175 14.2089 37.9191 13.9595C37.8406 14.1442 37.7621 14.3289 37.6882 14.509C37.7898 14.2643 37.9191 14.0426 38.0761 13.8303C37.956 13.9872 37.836 14.1396 37.716 14.2966C37.8868 14.075 38.0853 13.8764 38.307 13.7056C38.15 13.8256 37.9976 13.9457 37.8406 14.0657C38.053 13.9087 38.2793 13.7795 38.5194 13.6779C38.3347 13.7564 38.15 13.8349 37.9699 13.9087C38.2192 13.8072 38.4778 13.7425 38.7456 13.7056C38.5424 13.7333 38.3347 13.761 38.1315 13.7887C38.3855 13.761 38.6394 13.761 38.8934 13.7887C38.6902 13.761 38.4824 13.7333 38.2793 13.7056C38.5471 13.7425 38.8056 13.8072 39.055 13.9087C38.8703 13.8303 38.6856 13.7518 38.5055 13.6779C38.7502 13.7795 38.9719 13.9087 39.1843 14.0657C39.0273 13.9457 38.8749 13.8256 38.7179 13.7056C38.9395 13.8764 39.1381 14.075 39.3089 14.2966C39.1889 14.1396 39.0688 13.9872 38.9488 13.8303C39.1058 14.0426 39.235 14.2689 39.3366 14.509C39.2581 14.3243 39.1796 14.1396 39.1058 13.9595C39.2073 14.2089 39.272 14.4674 39.3089 14.7352C39.2812 14.5321 39.2535 14.3243 39.2258 14.1211C39.2397 14.2458 39.2489 14.3705 39.2489 14.4998C39.2535 15.0954 39.5028 15.7095 39.923 16.1343C40.3247 16.536 40.9804 16.8361 41.5575 16.8084C42.1532 16.7807 42.7719 16.5868 43.1921 16.1343C43.603 15.6864 43.8754 15.1231 43.8662 14.4998C43.8616 13.978 43.7969 13.4285 43.6307 12.9299C43.4737 12.4543 43.2659 11.9602 42.9704 11.5447C42.6795 11.1338 42.3748 10.7505 41.9823 10.4365C41.3959 9.97481 40.9065 9.6793 40.2001 9.42073C39.7106 9.24066 39.1612 9.16678 38.644 9.14831C38.4732 9.13908 38.3023 9.14831 38.1315 9.1714C37.776 9.21296 37.4066 9.24989 37.0603 9.34686C36.1184 9.61928 35.1534 10.1734 34.5254 10.9352C34.1145 11.4385 33.8328 11.8633 33.5835 12.4497C33.3295 13.0453 33.2233 13.5809 33.1679 14.2412C33.1264 14.7583 33.2002 15.2986 33.3203 15.8018C33.4357 16.2959 33.6435 16.7899 33.9067 17.224C34.1606 17.6488 34.4838 18.0736 34.8578 18.406C35.2318 18.7384 35.6474 19.0617 36.1045 19.2694C36.4046 19.4079 36.7094 19.5465 37.028 19.6388C37.3789 19.745 37.7667 19.7866 38.1269 19.8235C38.6486 19.8789 39.175 19.8097 39.6922 19.7127C39.8722 19.6804 40.0523 19.625 40.2231 19.5603C40.5648 19.431 40.9204 19.2925 41.2389 19.1032C41.6961 18.8308 42.1578 18.4753 42.4995 18.0597C42.9935 17.4548 43.3029 16.9423 43.5799 16.2128C43.7831 15.6772 43.8616 15.0677 43.8662 14.4998C43.8708 13.9134 43.603 13.2808 43.1921 12.8652C42.7904 12.4635 42.1347 12.1634 41.5575 12.1911C40.297 12.2465 39.2627 13.2069 39.2489 14.4998Z" fill="white"/>
</svg>
