<?xml version="1.0" encoding="utf-8"?>
<!-- Generator: Adobe Illustrator 25.0.1, SVG Export Plug-In . SVG Version: 6.00 Build 0)  -->
<svg version="1.1" id="Capa_1" xmlns="http://www.w3.org/2000/svg" xmlns:xlink="http://www.w3.org/1999/xlink" x="0px" y="0px"
	 viewBox="0 0 512 512" style="enable-background:new 0 0 512 512;" xml:space="preserve">
<style type="text/css">
	.st0{fill:#00253A;}
</style>
<g>
	<path class="st0" d="M493.3,77.3l-58.5-58.5C422.7,6.7,406.5,0,389.5,0H352v112c0,8.8-7.2,16-16,16H80c-8.8,0-16-7.2-16-16V0H32
		C14.3,0,0,14.3,0,32v448c0,17.7,14.3,32,32,32h448c17.7,0,32-14.3,32-32V122.5C512,105.5,505.3,89.3,493.3,77.3z M448,448H64V256
		h384V448z"/>
	<rect x="224" class="st0" width="64" height="96"/>
</g>
</svg>
