<svg xmlns="http://www.w3.org/2000/svg" viewBox="0 0 634.88 634.88"><defs><style>.cls-1{fill:#fefefe;}.cls-2{fill:none;}</style></defs><g id="Layer_2" data-name="Layer 2"><g id="Layer_1-2" data-name="Layer 1"><path class="cls-1" d="M353.73,250.9c15.26,39.11,15.35,54.34.63,75.51,1.66,1.13,3.52.51,5.23.52q74.48.06,149-.05c3.75,0,5,.71,4.94,4.77-.28,15.49-.24,31,0,46.48.06,3.77-.74,5-4.78,4.93-21.66-.23-43.32-.11-65-.11h-6.2c16.06,10.07,27.33,23,38.26,36.42a90.56,90.56,0,0,1,20.1,47c3.64,29.3,1.18,57.92-11.3,85-14.87,32.23-41.11,52.63-72.75,66.44s-65.45,17.14-99.63,17.1c-29.8,0-59.07-3.49-87.21-14-60.78-22.79-97.4-82.27-90.86-147,3.75-37.06,21.49-66.17,49.27-89.92,1.39-1.19,2.81-2.34,4.22-3.51.24-.21.46-.45.75-.73-1.2-1.42-2.79-.67-4.14-.67-22.16-.06-44.32-.13-66.48,0-3.45,0-4.44-.74-4.39-4.31q.33-23.49,0-47c0-3.85.87-4.9,4.83-4.89,52.65.15,105.3.06,158,.18a11.36,11.36,0,0,0,9-3.88c21.64-22.22,19.74-47.79,5.69-74-1.52-2.83-3.76-2.22-6-2.22-55.32,0-110.64-.08-166,.1-4.62,0-5.65-1.22-5.57-5.66q.4-25,0-50c-.06-3.84,1-4.55,4.66-4.54q127.71.12,255.43-.05c17.83,0,35.52-1.24,52.43-8.14,24-9.8,34.09-26.88,31.18-52.64-3.62-31.9-19-57.72-40.58-80.44a82.41,82.41,0,0,0-7.9-7.63c-3.16-2.53-2.26-3.62.74-5.43Q431.7,15.05,453.86,1.08c2.94-1.86,4.35-1.22,6.32,1.22,16.23,20.11,31.32,41,44.24,63.39,9.45,16.35,13.89,34.46,15.88,53.14,1.89,17.83,2.43,35.76-4,52.82-10.33,27.3-25.18,51.14-53.79,62.87C445.62,241.44,428,245.46,410,248A351.06,351.06,0,0,1,353.73,250.9ZM310.5,579c19,0,34.94-1.28,50.56-5,72-17.3,85.2-85.17,62.31-131.74-12.64-25.72-35.31-39.56-61.53-48.13s-53-8.13-80-5.1c-51.86,5.81-84.73,50.86-88.15,87.25-3.73,39.53,17.07,76.62,53.88,91.75C268.7,576.64,290.93,578.77,310.5,579Z"/><rect class="cls-2" width="634.88" height="634.88"/></g></g></svg>