<svg xmlns="http://www.w3.org/2000/svg" viewBox="0 0 1639.44 1321.01" preserveAspectRatio="none"><defs><style>.cls-1{fill:none;}.cls-2{fill:#002539;}</style></defs><g id="Layer_2" data-name="Layer 2"><g id="Layer_1-2" data-name="Layer 1"><rect class="cls-1" width="1639.32" height="1321.01"/><path class="cls-2" d="M.68.1Q817.61.1,1634.52,0c3.94,0,4.92.63,4.92,4.79q-.2,525.67-.12,1051.35c-3.47-.64-3.32-3.81-4-6.14-5.45-18.53-11-37-17.48-55.23-30.19-85.56-72-164.66-130.83-234.15-52.38-61.85-114.73-111-188.51-145-55-25.43-112.85-41.05-173-48.16-17.85-2.11-35.76-3.32-53.71-4.29q-25.5-1.36-50.91-.53a916.06,916.06,0,0,0-109.27,10.19c-58.71,9.1-116.13,23.45-172.92,40.78-32.33,9.86-62.76,24.08-93.22,38.32C585,680.16,524.73,709,462,732.08c-34.89,12.86-70.28,24.08-107.23,29.35a494.57,494.57,0,0,1-63.66,4.88c-27.54.36-54.91-1-82-6-52.37-9.63-99.58-30.27-139.46-66.11-25.27-22.7-45.15-49.62-61.12-79.62C2.44,603.21,0,591.78,0,578.88Q.41,292.41.22,5.93C.22,4-.32,2,.68.1Z"/></g></g></svg>