<?xml version="1.0" encoding="utf-8"?>
<!-- Generator: Adobe Illustrator 25.0.1, SVG Export Plug-In . SVG Version: 6.00 Build 0)  -->
<svg version="1.1" id="Layer_1" xmlns="http://www.w3.org/2000/svg" xmlns:xlink="http://www.w3.org/1999/xlink" x="0px" y="0px"
	 viewBox="0 0 117.2 117.2" style="enable-background:new 0 0 117.2 117.2;" xml:space="preserve">
<style type="text/css">
	.st0{fill:#00253A;}
</style>
<g id="Layer_2_1_">
	<g id="Layer_1-2">
		<path class="st0" d="M109.3,45.7c-1-0.2-2-0.3-2.9-0.5c-4.8-1.3-6.8-5.3-4.9-10c1.1-2.4,2.5-4.7,4-6.8c1.6-2.2,1.9-5.1,0.8-7.5
			c-4.1-9.7-12.6-12.4-21.3-6.7c-0.9,0.7-1.9,1.4-2.9,1.9c-3.6,1.3-7.5-0.5-8.9-4c-0.6-1.5-0.9-3.2-1-4.8C72.2,2.7,70,0.5,65.7,0
			H52.9c-3.8,0.5-5.9,2.6-6.2,6.4c-0.2,1.6-0.6,3.3-1.1,4.8c-1.4,5.3-6,7.3-10.7,4.6c-1.3-0.7-2.5-1.6-3.8-2.4
			c-6.2-4-9-3.8-14.5,1.2c-6.3,5.7-6.8,9-2.5,16.4c0.8,1.4,1.9,2.7,2.6,4.2c1.9,3.3,0.8,7.6-2.5,9.6c-0.5,0.3-1.1,0.5-1.7,0.7
			c-2.1,0.5-4.2,0.9-6.3,1.1c-3.6,0.6-5.9,2.2-6.1,6.5C0,57-0.1,61,0.1,64.9c0.3,3.5,1.8,5.4,5.3,6c2.5,0.4,4.9,0.9,7.2,1.6
			c5.1,1.5,6.7,5.9,3.8,10.5c-0.8,1.3-1.8,2.4-2.6,3.6c-4.4,6.3-4.3,8.7,1,14.2c1.4,1.6,3,3.1,4.7,4.4c3.3,2.4,6.6,2.6,10.1,0.3
			c2-1.5,4-2.9,6.1-4.2c3.1-1.8,7.1-0.8,8.9,2.3c0.3,0.5,0.5,0.9,0.6,1.5c0.6,1.9,1.1,3.8,1.3,5.8c0.4,3.8,2.4,5.9,6.2,6.4h11.9
			c4.5-0.4,6.6-3,7-7.3c0.1-1.5,0.4-2.9,0.9-4.4c1-3.6,4.8-5.8,8.4-4.7c0.3,0.1,0.7,0.2,1,0.4c1.9,0.9,3.8,2,5.6,3.1
			c6,3.7,8.8,3.4,14-1.6c6.3-6.1,6.7-8.8,2.1-16.4c-0.9-1.4-1.7-2.8-2.3-4.3c-1.8-5,0.7-9.2,5.8-10.2c4.4-0.9,9.5-0.7,10-7.1V53.7
			C116.1,47.2,116.1,47.2,109.3,45.7z M57.9,80.7c-11.8,0-21.2-10.3-21.4-23c-0.2-12.9,10.5-20.8,20.2-21.2
			c13.9-0.5,23.9,9.2,23.9,21.9C80.7,70.9,70.7,80.7,57.9,80.7z"/>
	</g>
</g>
</svg>
