<svg xmlns="http://www.w3.org/2000/svg" viewBox="0 0 301.48 301.48"><defs><style>.cls-1{fill:#00253a;}.cls-2{fill:#3a97ac;}</style></defs><g id="Layer_2" data-name="Layer 2"><g id="Layer_1-2" data-name="Layer 1"><circle class="cls-1" cx="150.74" cy="150.74" r="150.74"/><path class="cls-2" d="M262.72,151.37c1.42,54.29-42.26,112.77-114.61,111.55C92.19,262,38.75,218.82,38.72,147.54c0-49.71,40.55-108,108.86-109C214.17,37.57,263,86.5,262.72,151.37Z"/><path class="cls-1" d="M79.66,219.44c2.57-8.6,6.64-16.21,10-24.12a10.9,10.9,0,0,0-.56-10.63c-20.89-37.43-4.77-73.32,20.86-92.29,35.38-26.2,98-12.93,111,43.12,9.69,41.75-23.82,84.68-66.72,86.22-14.5.52-27.5-3.39-39.73-10.6a8.67,8.67,0,0,0-8.42-.66c-6.44,2.62-13,5-19.5,7.42C84.52,218.63,82.6,219.74,79.66,219.44Z"/><path class="cls-2" d="M138.17,158.31c.41-3.49-1.83-8.92.83-11.69,2.44-2.56,7.87-.51,12-1,3.62-.39,7.28-.54,10.78-1.72,8.16-2.75,10.73-10.28,5.92-17.39-7.25-10.71-21.61-11.25-29.4-1.12-.5.66-1,1.36-1.47,2-4.14,5.41-9.42,7-14.24,4.3-4.65-2.6-6.5-8.46-4.53-14.4,2.24-6.78,7.66-10.34,13.79-12.71,16.85-6.51,32.92-4.74,47.64,5.86a30.4,30.4,0,0,1,11.76,32.58c-3.12,11.43-13.16,19.3-26.45,20.73a56.53,56.53,0,0,1-7.42.75c-4.21-.1-7.7.14-6.45,5.92.36,1.69-.78,2.12-2.36,2.33-9.64,1.3-10.36.74-10.36-8.74Z"/><path class="cls-2" d="M144.39,178.72a12.95,12.95,0,0,1,0,25.89c-6.91-.05-12.25-5.68-12.25-12.94S137.49,178.77,144.39,178.72Z"/></g></g></svg>