<svg xmlns="http://www.w3.org/2000/svg" viewBox="0 0 383.32 383.32"><defs><style>.cls-1{fill:#f7941d;}.cls-2{fill:none;}</style></defs><g id="Layer_2" data-name="Layer 2"><g id="Layer_1-2" data-name="Layer 1"><path class="cls-1" d="M383.29,32.06a42.14,42.14,0,0,0-.7-8.92C379.45,8.91,367.89,0,352.66,0Q225.75,0,98.84,0c-.75,0-1.5,0-2.25,0-5.9.35-10,4.5-10.08,10.38-.08,12.73,0,25.45,0,38.18,0,4,1.68,7.24,5.2,8.83A20.51,20.51,0,0,0,100,59q109.7.12,219.38.06h4.82V324.27h-223c-1.25,0-2.5,0-3.74,0-7,.3-11,4.43-11,11.45,0,11.23.27,22.47-.12,33.68-.22,6.44,1.67,11.12,7.61,13.9H358.31a2.14,2.14,0,0,1,.61-.4c16.69-4.52,24.39-14.44,24.4-31.57Q383.34,191.71,383.29,32.06Z"/><path class="cls-1" d="M293.9,163.45c0-8.89-3.27-12.12-12.22-12.12H148.31c.08-1,.09-1.59.18-2.17q3.7-24.58,7.44-49.17c.89-5.86-.46-9.89-4.47-12.1C147,85.42,143,86.62,139,89.62Q77.72,136.35,16.33,183c-6.88,5.23-6.89,12.17,0,17.4q61.48,46.79,123,93.56c3.84,2.92,7.85,4,12.14,1.5s5.31-6.63,4.6-11.33q-2.44-16.27-4.85-32.54c-1-7.09-2-14.18-3.09-21.61H281.84c8.93,0,12.06-3.17,12.06-12.22Q293.92,190.58,293.9,163.45Z"/><rect class="cls-2" width="383.32" height="383.32"/></g></g></svg>