<svg xmlns="http://www.w3.org/2000/svg" viewBox="0 0 301.48 301.48"><defs><style>.cls-1{fill:#00253a;}.cls-2{fill:#fe9300;}</style></defs><g id="Layer_2" data-name="Layer 2"><g id="Layer_1-2" data-name="Layer 1"><circle class="cls-1" cx="150.74" cy="150.74" r="150.74"/><path class="cls-2" d="M230.71,149.61a175.86,175.86,0,0,1-4.55,39.79c-4.8,21.67-18.58,33-39.74,37.42a166.79,166.79,0,0,1-76.54-1.73c-17.28-4.43-28.23-14.41-33.2-31.55a149.29,149.29,0,0,1-2.49-73.47c1-4.55,2-9.09,3.14-13.59,3.81-14.6,13.38-23.72,27.43-28.56,19-6.55,38.7-7.69,58.6-6.45a175.84,175.84,0,0,1,22.73,3c24.76,4.82,37.83,20.33,41.64,44.72C229.41,129.86,230.81,140.54,230.71,149.61Z"/><path class="cls-1" d="M199.93,149.64c0,28.17-22.38,50.14-51.25,50.23-24.68.08-47.15-23.44-46.62-49.8s19.49-47.18,46.16-47.6C178.79,102,200.67,125.35,199.93,149.64Z"/><path class="cls-2" d="M134.47,150c0-5.64-.1-11.28,0-16.91s4.1-8.13,9.07-5.67c10,5,19.2,11.26,28.29,17.66,4.89,3.43,4.68,7.9-.21,11.41a237.36,237.36,0,0,1-26,16.63c-6.88,3.7-11.74.61-11.73-7.17,0-1.66,0-3.32,0-5V150Z"/></g></g></svg>