<svg xmlns="http://www.w3.org/2000/svg" viewBox="0 0 208.93 208.93"><defs><style>.cls-1{fill:#fa9201;}.cls-2{fill:none;}</style></defs><g id="Layer_2" data-name="Layer 2"><g id="Layer_1-2" data-name="Layer 1"><path class="cls-1" d="M53.15,152.92c1.65-5.69,3.53-12.06,5.33-18.44Q71.1,89.6,83.67,44.72A42.5,42.5,0,0,1,85,40.44C87.27,34.8,90,33.37,96,35q24.5,6.81,49,13.76c9.87,2.8,11.25,5.12,8.44,15.12-5.88,21-12,41.85-17.88,62.81-3.28,11.68-6.24,23.44-9.44,35.14a70.57,70.57,0,0,1-3.23,9.41c-1.87,4.35-4.74,6.17-9.91,4.66-17.22-5-34.58-9.59-51.84-14.5C57.2,160.33,53.31,158.77,53.15,152.92Zm83.56-89.19c.2-1.62-1.74-1.48-3-1.84-10.87-3.08-21.78-6-32.61-9.21-2.59-.77-3.46-.2-4.14,2.27Q86.51,92.66,75.82,130.28c-.83,2.89,0,3.72,2.53,4.38,10.29,2.69,20.6,5.32,30.76,8.41,4.1,1.24,5.68.63,6.83-3.71,5.72-21.51,11.8-42.93,17.74-64.38C134.66,71.46,135.58,67.92,136.71,63.73ZM96,154.1c-.71-3.09-2.73-5-5.82-5.13-2.77-.15-6.61,4.15-6.2,6.8.52,3.36,2.89,5.63,6.1,5.48C94.09,161.07,95.19,157.54,96,154.1Z"/><path class="cls-1" d="M154.71,186.8c-3.29-.63-6.29-1.51-7.74-4.85s-.05-5.82,2.13-8.11c3.27-3.43,7.38-5.7,11.51-7.84,2.51-1.31,2.92-2.56,1.46-5-2.7-4.58-5-9.41-7.64-14-1.25-2.15-1.17-3.3,1.16-4.6,4.79-2.68,9.32-5.81,14.11-8.49,2.48-1.39,2.77-2.7,1.34-5.1-2.53-4.29-4.54-8.91-7.21-13.11-2-3.09-1.12-4.45,1.79-6,4.39-2.36,8.46-5.3,12.82-7.71,2.6-1.44,3.2-2.74,1.55-5.43-2.6-4.25-4.68-8.81-7.18-13.13-1.35-2.33-1.54-3.62,1.07-5.53,7.6-5.52,15.89-9.66,24.32-13.64,3.55-1.68,6.49-1.31,8.84,1.72,2.56,3.28,2.53,6.79-.12,10.07-2.8,3.48-6.73,5.44-10.67,7.19-3.56,1.58-4.22,3.32-2.09,6.71,2.65,4.21,4.72,8.79,7.22,13.11,1.18,2,.94,3.12-1.16,4.3-4.65,2.6-9,5.67-13.75,8.12-3,1.59-3.18,3.35-1.65,5.92,2.11,3.58,4.15,7.2,6.28,10.77,2.29,3.82,2,6.65-2.41,8.83-4,2-7.66,4.71-11.61,6.84-2.52,1.36-2.7,2.67-1.31,5.08,2.66,4.61,5,9.42,7.44,14.13.79,1.5,1.74,2.81-.31,4.23a193,193,0,0,1-26.32,15.21A7.29,7.29,0,0,1,154.71,186.8Z"/><path class="cls-1" d="M62.74,30.14A9.07,9.07,0,0,1,58.56,37a110.75,110.75,0,0,1-9.83,5.86c-2.2,1.16-2.8,2.24-1.41,4.57,2.55,4.28,4.61,8.86,7.21,13.1,1.84,3,2,4.73-1.63,6.46-4.18,2-7.89,5-12,7-3.64,1.8-3.58,3.74-1.7,6.83,2.41,4,4.29,8.26,6.65,12.27,1.55,2.63,1.65,4.18-1.51,5.77-4.74,2.39-9.14,5.44-13.75,8.08-2,1.13-2.37,2.2-1.19,4.32,2.68,4.77,5,9.77,7.62,14.57,1.21,2.2,1.08,3.41-1.25,4.74-8.08,4.61-16,9.49-24.06,14.16-3.06,1.78-8-.25-10.48-4.06-2.27-3.54-1.07-6.47,2-8.61C7,129.43,11,127,15,124.68c2-1.18,2.34-2.28,1.14-4.36-2.75-4.74-5.13-9.7-7.9-14.42-1.33-2.24-1-3.38,1.23-4.65,4.63-2.61,9-5.66,13.69-8.19,2.86-1.54,3.4-3,1.6-5.78-2.6-4-4.79-8.36-7.22-12.52-1.73-3-1.49-5,2-6.67,4.32-2.11,8.28-5,12.56-7.15,2.83-1.46,3.49-2.83,1.71-5.71-2.7-4.38-4.89-9.07-7.45-13.54-1.17-2-1.4-3.32.91-4.84a172.64,172.64,0,0,1,25.24-14C58.5,20.16,62.65,25.7,62.74,30.14Z"/><rect class="cls-2" width="208.93" height="208.93"/></g></g></svg>