<?xml version="1.0" encoding="utf-8"?>
<!-- Generator: Adobe Illustrator 25.2.1, SVG Export Plug-In . SVG Version: 6.00 Build 0)  -->
<svg version="1.1" id="Layer_1" xmlns="http://www.w3.org/2000/svg" xmlns:xlink="http://www.w3.org/1999/xlink" x="0px" y="0px"
	 viewBox="0 0 24 24" style="enable-background:new 0 0 24 24;" xml:space="preserve">
<style type="text/css">
	.st0{fill:#76C2F6;}
</style>
<path class="st0" d="M0,12.7v-1.4c0-0.1,0-0.1,0-0.2c0.1-1.7,0.6-3.3,1.4-4.7c2-3.8,5.8-6.2,10.1-6.4c2.3-0.2,4.6,0.4,6.6,1.7
	c3.5,2,5.8,5.8,5.9,9.8c0.1,2.1-0.3,4.3-1.4,6.1c-1.7,3.3-4.8,5.5-8.5,6.2c-0.5,0.1-0.9,0.1-1.4,0.2h-1.4c-0.1,0-0.1,0-0.2,0
	c-1.7-0.1-3.3-0.6-4.7-1.4c-3.3-1.7-5.6-4.9-6.2-8.5C0.1,13.6,0.1,13.2,0,12.7z M7.8,14l2.2,2.3l5.6-5.6l-2.2-2.2L7.8,14z M9.1,17.2
	L6.8,15c-0.2,0.2-0.4,0.4-0.5,0.6c-0.1,0.1-0.1,0.2-0.2,0.4c-0.2,0.7-0.3,1.3-0.4,2c-0.1,0.4,0.2,0.7,0.6,0.6l2-0.5
	C8.2,18,8.3,18,8.4,18C8.7,17.7,8.9,17.4,9.1,17.2L9.1,17.2z M16.6,9.8l1.1-1.1c0.1-0.1,0.2-0.3,0-0.5c0,0,0,0,0,0
	c-0.6-0.6-1.2-1.2-1.8-1.8c-0.1-0.1-0.3-0.1-0.4,0c0,0,0,0,0,0c-0.4,0.4-0.8,0.8-1.1,1.2L16.6,9.8z"/>
</svg>
