<svg xmlns="http://www.w3.org/2000/svg" viewBox="0 0 301.83 301.83"><defs><style>.cls-1{fill:#00253a;}.cls-2{fill:#fe9300;}</style></defs><g id="Layer_2" data-name="Layer 2"><g id="Layer_1-2" data-name="Layer 1"><circle class="cls-1" cx="150.92" cy="150.92" r="150.92"/><path class="cls-2" d="M248.86,152.35c.31,49.71-36,95.23-98.7,96.31C93.61,249.64,53,200,53,151.45c-.06-53.54,44.63-98.27,98.21-98.29C207,53.13,248.83,95.64,248.86,152.35Z"/><path class="cls-1" d="M158.74,139.41c-1.33,5.14-2.3,9.32-3.51,13.42-.69,2.32.66,3.79,1.72,5.43q13.92,21.53,27.9,43c2.14,3.29,3.57,6.71,3.23,10.73-.53,6.4-6.49,9.84-12.27,6.94a20.64,20.64,0,0,1-7.84-7.51C156.61,194.09,145.17,176.79,133,160c-5.25-7.27-3.95-15.05-1.68-22.88.74-2.52,1.6-5,2.7-8.42-5.43,2.75-9.75,4.85-10.1,11.3a64.21,64.21,0,0,1-3.77,18.44c-1.29,3.59-3.55,5-7.2,4.46a6.43,6.43,0,0,1-5.92-6.33,21.89,21.89,0,0,1,.43-6.41A190.56,190.56,0,0,0,111,129c.39-3.61,2.49-6.07,5-8.3a145.63,145.63,0,0,1,23.22-16.31c7.1-4.14,19.66-.48,23.52,7,3.19,6.17,5.83,12.64,8.45,19.08a11.72,11.72,0,0,0,7.25,7c3.74,1.37,7.46,2.82,11.17,4.28a21.13,21.13,0,0,1,6.77,4.12,6.6,6.6,0,0,1,2,7.64c-1.14,3.19-4.06,2.8-6.34,2.59a50,50,0,0,1-31-14.31C160.41,141.25,159.89,140.64,158.74,139.41Z"/><path class="cls-1" d="M110.58,219.57c-5.61,0-8.94-4.68-7.24-10.3,1-3.24,3.06-5.88,5.13-8.46,8.34-10.4,16-21.12,18.37-34.67.62-3.54,2.17-3.86,4.4-1,3,3.93,6.09,7.87,9.29,11.69,1.53,1.84,1.15,3.6.56,5.57-3,10.12-9.36,18.2-15.87,26.19-2,2.44-4.14,4.75-6.31,7A11.33,11.33,0,0,1,110.58,219.57Z"/><path class="cls-1" d="M158.6,101.07a16.34,16.34,0,0,1-16.47-15.95c-.06-8,8.48-16.09,16.78-16a16.21,16.21,0,0,1,15.9,16C174.91,94.13,167.86,101.07,158.6,101.07Z"/></g></g></svg>