<svg xmlns="http://www.w3.org/2000/svg" viewBox="0 0 150.05 150.05"><defs><style>.cls-1{fill:#f3921d;}.cls-2{fill:none;}</style></defs><g id="Layer_2" data-name="Layer 2"><g id="Layer_1-2" data-name="Layer 1"><path class="cls-1" d="M144.34,61.44c0,15.64,0,31.29,0,46.94,0,9.66-3,18-11.08,23.94a26.72,26.72,0,0,1-31.71.14c-9.36-6.58-13.37-17.42-10.37-28,3.34-11.78,13-19.53,25.55-20.29a83.29,83.29,0,0,1,10.48,0c2.68.17,3.42-.79,3.39-3.38q-.18-16.49,0-33c0-2.53-.84-3.17-3.2-2.76Q94.7,50.73,62,56.24c-3.09.52-2.89,2.58-2.88,4.8q.14,28.21.23,56.43c0,4.68-.09,9.34-1.55,13.83-3.88,12-17.36,20.3-29.85,18.51-11.76-1.67-21.82-13.35-22.37-25.95C5,111.1,13.65,100,26.43,97a38.13,38.13,0,0,1,13.9-.65c4.7.64,5.44-1.18,5.39-5.4-.25-20.81-.17-41.62-.24-62.43,0-12.74,1.19-13.74,13.78-15.77C82.9,9,106.45,4.68,130,.61A33.88,33.88,0,0,1,133.5.12c7.74-.56,9.2.63,10.4,8.41.93,6,.52,12,.52,18,0,5.82-.15,11.65-.19,17.47s0,11.66,0,17.49Z"/><rect class="cls-2" width="150.05" height="150.05"/></g></g></svg>