<?xml version="1.0" encoding="utf-8"?>
<!-- Generator: Adobe Illustrator 25.0.1, SVG Export Plug-In . SVG Version: 6.00 Build 0)  -->
<svg version="1.1" id="Layer_1" xmlns="http://www.w3.org/2000/svg" xmlns:xlink="http://www.w3.org/1999/xlink" x="0px" y="0px"
	 viewBox="0 0 500 500" style="enable-background:new 0 0 500 500;" xml:space="preserve">
<style type="text/css">
	.st0{fill:#00253A;}
	.st1{fill:none;stroke:#00253A;stroke-width:43;stroke-miterlimit:10;}
</style>
<g id="Layer_2_1_">
	<g id="Layer_1-2">
		<path class="st0" d="M500,85.3c0,47.1-38.2,85.3-85.3,85.2c-47.1,0-85.3-38.2-85.2-85.3c0-47.1,38.2-85.2,85.3-85.2
			C461.8,0,500,38.2,500,85.3z"/>
		<path class="st0" d="M500,414.7c0,47.1-38.2,85.3-85.3,85.2c-47.1,0-85.3-38.2-85.2-85.3c0-47.1,38.2-85.2,85.3-85.2
			C461.8,329.4,500,367.6,500,414.7C500,414.7,500,414.7,500,414.7z"/>
		<path class="st0" d="M170.6,245c0,47.1-38.2,85.3-85.3,85.3S0,292.1,0,245s38.2-85.3,85.3-85.3c0,0,0,0,0,0
			C132.4,159.7,170.5,197.9,170.6,245z"/>
		<line class="st1" x1="76.8" y1="245" x2="414.7" y2="79.5"/>
		<line class="st1" x1="414.7" y1="414.7" x2="76.8" y2="245"/>
	</g>
</g>
</svg>
