<?xml version="1.0" encoding="utf-8"?>
<!-- Generator: Adobe Illustrator 25.2.1, SVG Export Plug-In . SVG Version: 6.00 Build 0)  -->
<svg version="1.1" id="Layer_1" xmlns="http://www.w3.org/2000/svg" xmlns:xlink="http://www.w3.org/1999/xlink" x="0px" y="0px"
	 viewBox="0 0 409 409" style="enable-background:new 0 0 409 409;" xml:space="preserve">
<style type="text/css">
	.st0{fill:#76C2F6;}
</style>
<g id="Layer_2_1_">
	<g id="Layer_1-2">
		<path class="st0" d="M281.5,188.7c-19,0-38-0.1-57.1,0.1c-3.2,0-4.2-0.6-4.2-4c0.2-19.3,0.1-38.6,0.1-58c0-6.5-2.3-11.7-8-15.1
			c-11-6.4-23.7,1.5-23.8,14.8c-0.1,19.5-0.1,38.9,0,58.4c0,3.1-0.8,3.9-3.9,3.9c-19-0.1-38-0.1-57.1-0.1c-3.8,0-7.4,0.4-10.7,2.5
			c-5.8,3.6-8.6,10.6-6.9,17.3c1.9,7.1,7.6,11.9,15.1,11.9c19.6,0.1,39.1,0.2,58.7-0.1c4.1-0.1,4.9,1.1,4.9,5
			c-0.2,19.1-0.1,38.1-0.1,57.2c0,10.5,7,17.6,16.7,17.2c8.7-0.4,15-7.3,15-16.9c0.1-19.2,0.2-38.4-0.1-57.6c-0.1-4.2,1.2-4.9,5-4.8
			c9.4,0.3,18.9,0.1,28.3,0.1l0,0c10.1,0,20.2,0.2,30.3-0.1c8.7-0.1,15.6-7.3,15.5-16c0-1.9-0.4-3.7-1.1-5.5
			C295.9,192.3,290,188.7,281.5,188.7z"/>
		<path class="st0" d="M204.5,0C91.6,0,0,91.6,0,204.5S91.6,409,204.5,409S409,317.5,409,204.5S317.5,0,204.5,0z M204.5,377.5
			c-95.5,0-172.9-77.5-172.9-173S109,31.6,204.5,31.6S377.4,109,377.4,204.5S300,377.5,204.5,377.5L204.5,377.5z"/>
	</g>
</g>
</svg>
