<svg width="21" height="30" viewBox="0 0 21 30" fill="none" xmlns="http://www.w3.org/2000/svg">
<path fill-rule="evenodd" clip-rule="evenodd" d="M0 9.28194C0.0983212 7.88889 0.419972 6.62222 0.962143 5.47778C1.50431 4.33333 2.22627 3.35556 3.14347 2.53611C4.05083 1.72639 5.13658 1.09167 6.38526 0.652778C7.64096 0.219444 9.03853 0 10.5878 0C12.1385 0 13.5529 0.184722 14.8268 0.563889C16.1092 0.943056 17.2048 1.48889 18.1136 2.20139C19.0294 2.91528 19.7345 3.79444 20.2415 4.83472C20.7486 5.87361 21 7.05417 21 8.38333C21 9.05139 20.9452 9.66945 20.83 10.2222C20.7149 10.7861 20.5365 11.3153 20.278 11.8167C20.0266 12.3097 19.7078 12.7944 19.3075 13.2694C18.9072 13.7444 18.4254 14.2292 17.865 14.7319C17.1528 15.3472 16.539 15.8847 16.0039 16.3528C15.4701 16.8194 15.0249 17.2778 14.6597 17.7347C14.2945 18.1931 14.0192 18.6861 13.8408 19.2139C13.8364 19.2265 13.8321 19.2392 13.8278 19.2519C13.4814 20.2814 12.6702 21.1764 11.584 21.1764H9.74911C8.64454 21.1764 7.71981 20.2754 7.8771 19.1821C7.92103 18.8767 7.97624 18.5906 8.04267 18.3236C8.24774 17.5403 8.5413 16.8444 8.93318 16.2194C9.32506 15.6014 9.80543 15.0306 10.3673 14.4931C10.9375 13.9639 11.5794 13.3833 12.3084 12.7667C12.8337 12.3167 13.2523 11.9222 13.5655 11.5694C13.8759 11.2181 14.1526 10.7681 14.4026 10.2208C14.6428 9.68472 14.7678 9.08611 14.7678 8.43472C14.7678 7.60695 14.6611 6.97222 14.4378 6.52361C14.2257 6.075 13.9574 5.74028 13.6554 5.51944C13.352 5.29028 12.9854 5.11389 12.5514 4.99167C12.1132 4.85972 11.4277 4.79722 10.4838 4.79722C8.29025 4.79722 6.86623 5.69573 6.21572 7.48886C5.86182 8.46438 5.04784 9.28056 4.01011 9.28056H0.00138751C0.000621165 9.28056 0 9.28118 0 9.28194ZM13.9546 28C13.9546 29.1046 13.0592 30 11.9546 30H9.53421C8.42964 30 7.53421 29.1046 7.53421 28V26.3472C7.53421 25.2427 8.42964 24.3472 9.53421 24.3472H11.9546C13.0592 24.3472 13.9546 25.2427 13.9546 26.3472V28Z" fill="white"/>
</svg>
