<?xml version="1.0" encoding="utf-8"?>
<!-- Generator: Adobe Illustrator 25.2.1, SVG Export Plug-In . SVG Version: 6.00 Build 0)  -->
<svg version="1.1" id="Layer_1" xmlns="http://www.w3.org/2000/svg" xmlns:xlink="http://www.w3.org/1999/xlink" x="0px" y="0px"
	 viewBox="0 0 384 384" style="enable-background:new 0 0 384 384;" xml:space="preserve">
<style type="text/css">
	.st0{fill:#DC0000;}
</style>
<path class="st0" d="M305,383.6H77.5c-0.1-0.8-0.8-0.8-1.4-0.9c-18.9-6-27.8-18.2-27.8-38v-65.8c0-32.8,0-65.6,0-98.4
	c-0.2-16.7,11.1-31.3,27.4-35.3c5.7-1.4,11.4-1.1,17.1-1c2.7,0.1,3.6-0.5,3.5-3.4c-0.2-12.8-0.1-25.7-0.1-38.5
	c-0.2-7.4,0.3-14.7,1.4-22c9.1-54.3,62.7-90,116.3-77.4c42.9,10.1,73.3,48.2,73.9,92.2c0.2,15.3,0.1,30.7,0,46c0,2.5,0.7,3.2,3.1,3
	c3.1-0.2,6.2-0.1,9.4,0c19.6,0.4,35.4,15.9,35.5,35.6c0.1,56.1,0.1,112.2,0,168.3c0,15.4-9.7,28.3-24.1,33.6
	C309.3,382.4,306.9,382.2,305,383.6z M191.8,144.2c20.2,0,40.4-0.1,60.6,0.1c2.9,0,3.5-0.8,3.4-3.5c-0.2-10,0-20-0.1-29.9
	c-0.1-8.5,0.5-16.9-0.8-25.4c-5.1-32.9-38-57.4-71-52.5s-55.6,31-55.7,64.2c-0.1,14.6,0.1,29.2-0.1,43.8c0,2.9,0.7,3.4,3.5,3.4
	C151.7,144.1,171.7,144.2,191.8,144.2z M191.8,208c-13.7,0.2-25.9,9-30.2,22c-4.4,13.1,0.4,27.5,11.6,35.4c2,1.2,3.1,3.5,2.9,5.8
	c-0.2,10.3-0.1,20.7-0.1,31c-0.1,2,0.1,4,0.6,5.9c2.2,7.4,9.5,12.4,16.8,11.5c8.3-1,14.2-7.2,14.4-15.4c0.2-10.8,0.1-21.7,0-32.5
	c0-2.8,0.6-4.6,3.1-6.4c11.2-8,15.8-22.5,11.2-35.5C217.8,216.7,205.6,208,191.8,208L191.8,208z"/>
</svg>
