<?xml version="1.0" encoding="utf-8"?>
<!-- Generator: Adobe Illustrator 25.2.1, SVG Export Plug-In . SVG Version: 6.00 Build 0)  -->
<svg version="1.1" id="Layer_1" xmlns="http://www.w3.org/2000/svg" xmlns:xlink="http://www.w3.org/1999/xlink" x="0px" y="0px"
	 viewBox="0 0 24 24" style="enable-background:new 0 0 24 24;" xml:space="preserve">
<style type="text/css">
	.st0{fill:#76C2F6;}
</style>
<path class="st0" d="M12,5.5c4,0,7.6,2.1,9.4,5.6c0.2,0.3,0.2,0.7,0,1c-1.9,3.4-5.5,5.6-9.4,5.6c-4,0-7.6-2.1-9.4-5.6
	c-0.2-0.3-0.2-0.7,0-1C4.4,7.6,8,5.5,12,5.5z M12,3.3c-5.3,0-9.9,3.2-11.9,7.8c-0.1,0.3-0.1,0.5,0,0.8c2,4.6,6.6,7.8,11.9,7.8
	s9.9-3.2,11.9-7.8c0.1-0.3,0.1-0.5,0-0.8C21.9,6.5,17.3,3.3,12,3.3z M12,8.8c1.5,0,2.7,1.2,2.7,2.7s-1.2,2.7-2.7,2.7
	S9.3,13,9.3,11.5S10.5,8.8,12,8.8z M12,6.6c-2.7,0-4.9,2.2-4.9,4.9s2.2,4.9,4.9,4.9s4.9-2.2,4.9-4.9S14.7,6.6,12,6.6z"/>
</svg>
