<svg width="18" height="18" viewBox="0 0 18 18" fill="none" xmlns="http://www.w3.org/2000/svg">
<path d="M2.41406 1C2.02358 0.609518 1.39048 0.609517 1 1C0.609518 1.39048 0.609518 2.02358 1 2.41406L6.87883 8.29289C7.26936 8.68342 7.26936 9.31658 6.87883 9.70711L1 15.5859C0.609518 15.9764 0.609518 16.6095 1 17C1.39048 17.3905 2.02358 17.3905 2.41406 17L8.29289 11.1212C8.68342 10.7306 9.31658 10.7306 9.70711 11.1212L15.5859 17C15.9764 17.3905 16.6095 17.3905 17 17C17.3905 16.6095 17.3905 15.9764 17 15.5859L11.1212 9.70711C10.7306 9.31658 10.7306 8.68342 11.1212 8.29289L17 2.41406C17.3905 2.02358 17.3905 1.39048 17 1C16.6095 0.609517 15.9764 0.609517 15.5859 1L9.70711 6.87883C9.31659 7.26936 8.68342 7.26936 8.2929 6.87883L2.41406 1Z" fill="#F6FBFF"/>
</svg>
