<?xml version="1.0" encoding="utf-8"?>
<!-- Generator: Adobe Illustrator 25.0.1, SVG Export Plug-In . SVG Version: 6.00 Build 0)  -->
<svg version="1.1" id="Layer_1" xmlns="http://www.w3.org/2000/svg" xmlns:xlink="http://www.w3.org/1999/xlink" x="0px" y="0px"
	 viewBox="0 0 512 512" style="enable-background:new 0 0 512 512;" xml:space="preserve">
<style type="text/css">
	.st0{fill:#00253A;}
	.st1{fill:#E3E4D8;}
	.st2{fill:#D0CEBD;}
	.st3{fill:#2F9171;}
	.st4{fill:#A09893;}
	.st5{fill:#FFFFFF;}
</style>
<circle class="st0" cx="256" cy="256" r="256"/>
<g>
	<path class="st1" d="M358.1,388.7H153.9V108h158.2l45.9,45.9V388.7z"/>
	<path class="st2" d="M312.1,108v45.9h45.9L312.1,108z"/>
	<path class="st3" d="M153.9,312.1h204.2V404H153.9V312.1z"/>
	<g>
		<path class="st4" d="M220.3,205h-35.7c-2.8,0-5.1-2.3-5.1-5.1v-20.4c0-2.8,2.3-5.1,5.1-5.1h35.7c2.8,0,5.1,2.3,5.1,5.1v20.4
			C225.4,202.7,223.1,205,220.3,205z M189.6,194.8h25.5v-10.2h-25.5V194.8z"/>
		<path class="st4" d="M256,205h-35.7c-2.8,0-5.1-2.3-5.1-5.1v-20.4c0-2.8,2.3-5.1,5.1-5.1H256c2.8,0,5.1,2.3,5.1,5.1v20.4
			C261.1,202.7,258.8,205,256,205z M225.4,194.8h25.5v-10.2h-25.5V194.8z"/>
		<path class="st4" d="M291.7,205H256c-2.8,0-5.1-2.3-5.1-5.1v-20.4c0-2.8,2.3-5.1,5.1-5.1h35.7c2.8,0,5.1,2.3,5.1,5.1v20.4
			C296.8,202.7,294.5,205,291.7,205z M261.1,194.8h25.5v-10.2h-25.5V194.8z"/>
		<path class="st4" d="M327.5,205h-35.7c-2.8,0-5.1-2.3-5.1-5.1v-20.4c0-2.8,2.3-5.1,5.1-5.1h35.7c2.8,0,5.1,2.3,5.1,5.1v20.4
			C332.6,202.7,330.3,205,327.5,205z M296.8,194.8h25.5v-10.2h-25.5V194.8z"/>
		<path class="st4" d="M220.3,225.4h-35.7c-2.8,0-5.1-2.3-5.1-5.1v-20.4c0-2.8,2.3-5.1,5.1-5.1h35.7c2.8,0,5.1,2.3,5.1,5.1v20.4
			C225.4,223.1,223.1,225.4,220.3,225.4z M189.6,215.2h25.5V205h-25.5V215.2z"/>
		<path class="st4" d="M256,225.4h-35.7c-2.8,0-5.1-2.3-5.1-5.1v-20.4c0-2.8,2.3-5.1,5.1-5.1H256c2.8,0,5.1,2.3,5.1,5.1v20.4
			C261.1,223.1,258.8,225.4,256,225.4z M225.4,215.2h25.5V205h-25.5V215.2z"/>
		<path class="st4" d="M291.7,225.4H256c-2.8,0-5.1-2.3-5.1-5.1v-20.4c0-2.8,2.3-5.1,5.1-5.1h35.7c2.8,0,5.1,2.3,5.1,5.1v20.4
			C296.8,223.1,294.5,225.4,291.7,225.4z M261.1,215.2h25.5V205h-25.5V215.2z"/>
		<path class="st4" d="M327.5,225.4h-35.7c-2.8,0-5.1-2.3-5.1-5.1v-20.4c0-2.8,2.3-5.1,5.1-5.1h35.7c2.8,0,5.1,2.3,5.1,5.1v20.4
			C332.6,223.1,330.3,225.4,327.5,225.4z M296.8,215.2h25.5V205h-25.5V215.2z"/>
		<path class="st4" d="M220.3,245.8h-35.7c-2.8,0-5.1-2.3-5.1-5.1v-20.4c0-2.8,2.3-5.1,5.1-5.1h35.7c2.8,0,5.1,2.3,5.1,5.1v20.4
			C225.4,243.5,223.1,245.8,220.3,245.8z M189.6,235.6h25.5v-10.2h-25.5V235.6z"/>
		<path class="st4" d="M256,245.8h-35.7c-2.8,0-5.1-2.3-5.1-5.1v-20.4c0-2.8,2.3-5.1,5.1-5.1H256c2.8,0,5.1,2.3,5.1,5.1v20.4
			C261.1,243.5,258.8,245.8,256,245.8z M225.4,235.6h25.5v-10.2h-25.5V235.6z"/>
		<path class="st4" d="M291.7,245.8H256c-2.8,0-5.1-2.3-5.1-5.1v-20.4c0-2.8,2.3-5.1,5.1-5.1h35.7c2.8,0,5.1,2.3,5.1,5.1v20.4
			C296.8,243.5,294.5,245.8,291.7,245.8z M261.1,235.6h25.5v-10.2h-25.5V235.6z"/>
		<path class="st4" d="M327.5,245.8h-35.7c-2.8,0-5.1-2.3-5.1-5.1v-20.4c0-2.8,2.3-5.1,5.1-5.1h35.7c2.8,0,5.1,2.3,5.1,5.1v20.4
			C332.6,243.5,330.3,245.8,327.5,245.8z M296.8,235.6h25.5v-10.2h-25.5V235.6z"/>
		<path class="st4" d="M220.3,266.2h-35.7c-2.8,0-5.1-2.3-5.1-5.1v-20.4c0-2.8,2.3-5.1,5.1-5.1h35.7c2.8,0,5.1,2.3,5.1,5.1v20.4
			C225.4,263.9,223.1,266.2,220.3,266.2z M189.6,256h25.5v-10.2h-25.5V256z"/>
		<path class="st4" d="M256,266.2h-35.7c-2.8,0-5.1-2.3-5.1-5.1v-20.4c0-2.8,2.3-5.1,5.1-5.1H256c2.8,0,5.1,2.3,5.1,5.1v20.4
			C261.1,263.9,258.8,266.2,256,266.2z M225.4,256h25.5v-10.2h-25.5V256z"/>
		<path class="st4" d="M291.7,266.2H256c-2.8,0-5.1-2.3-5.1-5.1v-20.4c0-2.8,2.3-5.1,5.1-5.1h35.7c2.8,0,5.1,2.3,5.1,5.1v20.4
			C296.8,263.9,294.5,266.2,291.7,266.2z M261.1,256h25.5v-10.2h-25.5V256z"/>
		<path class="st4" d="M327.5,266.2h-35.7c-2.8,0-5.1-2.3-5.1-5.1v-20.4c0-2.8,2.3-5.1,5.1-5.1h35.7c2.8,0,5.1,2.3,5.1,5.1v20.4
			C332.6,263.9,330.3,266.2,327.5,266.2z M296.8,256h25.5v-10.2h-25.5V256z"/>
		<path class="st4" d="M220.3,286.6h-35.7c-2.8,0-5.1-2.3-5.1-5.1v-20.4c0-2.8,2.3-5.1,5.1-5.1h35.7c2.8,0,5.1,2.3,5.1,5.1v20.4
			C225.4,284.3,223.1,286.6,220.3,286.6z M189.6,276.4h25.5v-10.2h-25.5V276.4z"/>
		<path class="st4" d="M256,286.6h-35.7c-2.8,0-5.1-2.3-5.1-5.1v-20.4c0-2.8,2.3-5.1,5.1-5.1H256c2.8,0,5.1,2.3,5.1,5.1v20.4
			C261.1,284.3,258.8,286.6,256,286.6z M225.4,276.4h25.5v-10.2h-25.5V276.4z"/>
		<path class="st4" d="M291.7,286.6H256c-2.8,0-5.1-2.3-5.1-5.1v-20.4c0-2.8,2.3-5.1,5.1-5.1h35.7c2.8,0,5.1,2.3,5.1,5.1v20.4
			C296.8,284.3,294.5,286.6,291.7,286.6z M261.1,276.4h25.5v-10.2h-25.5V276.4z"/>
		<path class="st4" d="M327.5,286.6h-35.7c-2.8,0-5.1-2.3-5.1-5.1v-20.4c0-2.8,2.3-5.1,5.1-5.1h35.7c2.8,0,5.1,2.3,5.1,5.1v20.4
			C332.6,284.3,330.3,286.6,327.5,286.6z M296.8,276.4h25.5v-10.2h-25.5V276.4z"/>
	</g>
	<path class="st5" d="M215.2,388.7h-20.4c-8.5,0-15.4-6.9-15.4-15.4v-30.5c0-8.5,6.9-15.4,15.4-15.4h20.4c2.8,0,5.1,2.3,5.1,5.1
		c0,2.8-2.3,5.1-5.1,5.1h-20.4c-2.8,0-5.1,2.3-5.1,5.1v30.5c0,2.8,2.3,5.2,5.1,5.2h20.4c2.8,0,5.1,2.3,5.1,5.1
		C220.3,386.4,218,388.7,215.2,388.7z"/>
	<path class="st5" d="M253.4,388.7h-17.9c-2.8,0-5.1-2.3-5.1-5.1c0-2.8,2.3-5.1,5.1-5.1h17.9c4.2,0,7.7-3.4,7.7-7.7
		s-3.4-7.7-7.7-7.7h-5.1c-9.8,0-17.9-8-17.9-17.9c0-9.9,8-17.9,17.9-17.9h17.9c2.8,0,5.1,2.3,5.1,5.1c0,2.8-2.3,5.1-5.1,5.1h-17.9
		c-4.2,0-7.7,3.4-7.7,7.7c0,4.2,3.4,7.7,7.7,7.7h5.1c9.9,0,17.9,8,17.9,17.9C271.3,380.7,263.3,388.7,253.4,388.7z"/>
	<path class="st5" d="M307,388.7c-2.1,0-4-1.3-4.7-3.2l-20.4-51c-1-2.6,0.2-5.6,2.8-6.6c2.6-1,5.6,0.2,6.6,2.8l15.7,39.2l15.7-39.2
		c1.1-2.6,4-3.9,6.6-2.8c2.6,1.1,3.9,4,2.8,6.6l-20.4,51C311,387.4,309.1,388.7,307,388.7z"/>
</g>
</svg>
