<?xml version="1.0" encoding="utf-8"?>
<!-- Generator: Adobe Illustrator 25.2.1, SVG Export Plug-In . SVG Version: 6.00 Build 0)  -->
<svg version="1.1" id="Layer_1" xmlns="http://www.w3.org/2000/svg" xmlns:xlink="http://www.w3.org/1999/xlink" x="0px" y="0px"
	 viewBox="0 0 73 73" style="enable-background:new 0 0 73 73;" xml:space="preserve">
<style type="text/css">
	.st0{fill-rule:evenodd;clip-rule:evenodd;fill:#FFFFFF;}
	.st1{fill-rule:evenodd;clip-rule:evenodd;fill:#76C2F6;}
</style>
<g>
	<circle class="st0" cx="36.5" cy="36.5" r="36.5"/>
	<path class="st1" d="M31,23.9c-3.2,3.8-3.2,9.9,0,13.7l0.3,0.3c0.3,0.3,0.5,0.6,0.8,0.8l0.2,0.2v3l-6.7,2.4l-0.2,0.1
		c-2,0.8-3.3,2.8-3.3,5V52c0,0.5,0.4,1,1,1H51c0.5,0,1-0.4,1-1v-2.8V49v-0.2c-0.2-2.1-1.6-3.9-3.5-4.6l-6.7-2.4v-3l0.2-0.2
		c0.4-0.3,0.8-0.7,1.1-1.1c3.2-3.8,3.2-9.9,0-13.7C39.6,20,34.2,20,31,23.9z M41.3,25.2c2.6,3.1,2.6,8.1,0,11.2
		c-0.4,0.5-0.8,0.9-1.3,1.2c-0.3,0.2-0.4,0.5-0.4,0.8v4.1c0,0.4,0.3,0.8,0.6,0.9l7.3,2.6c1.3,0.5,2.2,1.7,2.3,3.1v0.2v1.8h-26v-1.8
		c0-1.4,0.8-2.7,2.1-3.2l0.2-0.1l7.3-2.6c0.4-0.1,0.6-0.5,0.6-0.9v-4.1c0-0.3-0.2-0.6-0.4-0.8c-0.5-0.3-0.9-0.7-1.3-1.2
		c-2.6-3.1-2.6-8.1,0-11.2c2.4-2.9,6.2-3,8.7-0.2C41.2,25,41.3,25.2,41.3,25.2z"/>
</g>
</svg>
