<?xml version="1.0" encoding="utf-8"?>
<!-- Generator: Adobe Illustrator 25.2.1, SVG Export Plug-In . SVG Version: 6.00 Build 0)  -->
<svg version="1.1" id="Layer_1" xmlns="http://www.w3.org/2000/svg" xmlns:xlink="http://www.w3.org/1999/xlink" x="0px" y="0px"
	 viewBox="0 0 208.9 208.9" style="enable-background:new 0 0 208.9 208.9;" xml:space="preserve">
<style type="text/css">
	.st0{fill:#72C84C;}
	.st1{fill:none;}
</style>
<g id="Layer_2_1_">
	<g id="Layer_1-2">
		<path class="st0" d="M53.2,152.9c1.7-5.7,3.5-12.1,5.3-18.4c8.4-29.9,16.8-59.8,25.2-89.8c0.4-1.4,0.8-2.9,1.3-4.3
			c2.3-5.6,5-7.1,11-5.4c16.3,4.5,32.7,9.1,49,13.8c9.9,2.8,11.2,5.1,8.4,15.1c-5.9,21-12,41.8-17.9,62.8
			c-3.3,11.7-6.2,23.4-9.4,35.1c-0.9,3.2-1.9,6.4-3.2,9.4c-1.9,4.4-4.7,6.2-9.9,4.7c-17.2-5-34.6-9.6-51.8-14.5
			C57.2,160.3,53.3,158.8,53.2,152.9z M136.7,63.7c0.2-1.6-1.7-1.5-3-1.8c-10.9-3.1-21.8-6-32.6-9.2c-2.6-0.8-3.5-0.2-4.1,2.3
			c-7,25.1-14,50.3-21.1,75.3c-0.8,2.9,0,3.7,2.5,4.4c10.3,2.7,20.6,5.3,30.8,8.4c4.1,1.2,5.7,0.6,6.8-3.7
			c5.7-21.5,11.8-42.9,17.7-64.4C134.7,71.5,135.6,67.9,136.7,63.7L136.7,63.7z M96,154.1c-0.7-3.1-2.7-5-5.8-5.1
			c-2.8-0.1-6.6,4.1-6.2,6.8c0.5,3.4,2.9,5.6,6.1,5.5C94.1,161.1,95.2,157.5,96,154.1z"/>
		<path class="st0" d="M154.7,186.8c-3.3-0.6-6.3-1.5-7.7-4.9s-0.1-5.8,2.1-8.1c3.3-3.4,7.4-5.7,11.5-7.8c2.5-1.3,2.9-2.6,1.5-5
			c-2.7-4.6-5-9.4-7.6-14c-1.2-2.1-1.2-3.3,1.2-4.6c4.8-2.7,9.3-5.8,14.1-8.5c2.5-1.4,2.8-2.7,1.3-5.1c-2.5-4.3-4.5-8.9-7.2-13.1
			c-2-3.1-1.1-4.4,1.8-6c4.4-2.4,8.5-5.3,12.8-7.7c2.6-1.4,3.2-2.7,1.6-5.4c-2.6-4.2-4.7-8.8-7.2-13.1c-1.4-2.3-1.5-3.6,1.1-5.5
			c7.6-5.5,15.9-9.7,24.3-13.6c3.6-1.7,6.5-1.3,8.8,1.7c2.6,3.3,2.5,6.8-0.1,10.1c-2.8,3.5-6.7,5.4-10.7,7.2
			c-3.6,1.6-4.2,3.3-2.1,6.7c2.6,4.2,4.7,8.8,7.2,13.1c1.2,2,0.9,3.1-1.2,4.3c-4.6,2.6-9,5.7-13.8,8.1c-3,1.6-3.2,3.3-1.6,5.9
			c2.1,3.6,4.1,7.2,6.3,10.8c2.3,3.8,2,6.6-2.4,8.8c-4,2-7.7,4.7-11.6,6.8c-2.5,1.4-2.7,2.7-1.3,5.1c2.7,4.6,5,9.4,7.4,14.1
			c0.8,1.5,1.7,2.8-0.3,4.2c-8.4,5.8-17.2,10.8-26.3,15.2C156,186.7,155.3,186.8,154.7,186.8z"/>
		<path class="st0" d="M62.7,30.1c-0.2,2.8-1.8,5.3-4.2,6.9c-3.2,2.1-6.5,4.1-9.8,5.9c-2.2,1.2-2.8,2.2-1.4,4.6
			c2.5,4.3,4.6,8.9,7.2,13.1c1.8,3,2,4.7-1.6,6.5c-4.2,2-7.9,5-12,7c-3.6,1.8-3.6,3.7-1.7,6.8c2.4,4,4.3,8.3,6.7,12.3
			c1.5,2.6,1.7,4.2-1.5,5.8c-4.7,2.4-9.1,5.4-13.8,8.1c-2,1.1-2.4,2.2-1.2,4.3c2.7,4.8,5,9.8,7.6,14.6c1.2,2.2,1.1,3.4-1.2,4.7
			c-8.1,4.6-16,9.5-24.1,14.2c-3.1,1.8-8-0.2-10.5-4.1c-2.3-3.5-1.1-6.5,2-8.6C7,129.4,11,127,15,124.7c2-1.2,2.3-2.3,1.1-4.4
			c-2.8-4.7-5.1-9.7-7.9-14.4c-1.3-2.2-1-3.4,1.2-4.7c4.6-2.6,9-5.7,13.7-8.2c2.9-1.5,3.4-3,1.6-5.8c-2.6-4-4.8-8.4-7.2-12.5
			c-1.7-3-1.5-5,2-6.7c4.3-2.1,8.3-5,12.6-7.2c2.8-1.5,3.5-2.8,1.7-5.7c-2.7-4.4-4.9-9.1-7.5-13.5c-1.2-2-1.4-3.3,0.9-4.8
			c8-5.4,16.5-10,25.2-14C58.5,20.2,62.7,25.7,62.7,30.1z"/>
		<rect y="0" class="st1" width="208.9" height="208.9"/>
	</g>
</g>
</svg>
