<?xml version="1.0" encoding="utf-8"?>
<!-- Generator: Adobe Illustrator 25.0.1, SVG Export Plug-In . SVG Version: 6.00 Build 0)  -->
<svg version="1.1" id="Layer_1" xmlns="http://www.w3.org/2000/svg" xmlns:xlink="http://www.w3.org/1999/xlink" x="0px" y="0px"
	 viewBox="0 0 239.6 133.1" style="enable-background:new 0 0 239.6 133.1;" xml:space="preserve">
<style type="text/css">
	.st0{fill:#154360;}
	.st1{fill:#60CE80;}
	.st2{fill:#91E8A7;}
	.st3{enable-background:new    ;}
</style>
<g id="Layer_2_1_">
	<g id="Layer_1-2">
		<path class="st0" d="M112.3,75.3V53.1c0-2.3-1.7-4.3-4-4.6c-2.4-0.2-4.6,1.5-4.8,4c0,0.1,0,0.3,0,0.4v22.5H77V53.1
			c0-2.3-1.7-4.3-4-4.6c-2.4-0.2-4.6,1.5-4.8,4c0,0.1,0,0.3,0,0.4v22.5H57.8c-4,0-7.2-3.2-7.2-7.2l0,0v-58c0-4,3.2-7.2,7.2-7.2h83.3
			v72.3H112.3z"/>
		<path class="st1" d="M162.7,35.3H189V7.2c0-4-3.2-7.2-7.2-7.2c0,0,0,0,0,0h-69.7c-2.3,0-4.3,1.7-4.6,4c-0.2,2.4,1.5,4.6,4,4.8
			c0.1,0,0.3,0,0.4,0h4c2.3,0,4.3,1.7,4.6,4c0.2,2.4-1.5,4.6-4,4.8c-0.1,0-0.3,0-0.4,0H92.2c-2.3,0-4.3,1.7-4.6,4
			c-0.2,2.4,1.6,4.6,4,4.7c0.1,0,0.2,0,0.3,0h9.6c2.3,0,4.3,1.7,4.6,4c0.2,2.4-1.5,4.6-4,4.8c-0.1,0-0.3,0-0.4,0h-2.4
			c-2.3,0-4.3,1.7-4.6,4c-0.2,2.4,1.5,4.6,4,4.8c0.1,0,0.3,0,0.4,0h22.8c2.4,0,4.4,2,4.4,4.4c0,0.1,0,0.3,0,0.4
			c-0.3,2.3-2.3,4-4.6,4h-0.5c-2.3,0-4.3,1.7-4.6,4c-0.2,2.4,1.5,4.6,4,4.8c0.1,0,0.3,0,0.4,0h9.3c2.3,0,4.3,1.7,4.6,4
			c0.2,2.4-1.5,4.6-4,4.8c-0.1,0-0.3,0-0.4,0h-18.7c-2.3,0-4.3,1.7-4.6,4c-0.2,2.4,1.5,4.6,4,4.8c0.1,0,0.3,0,0.4,0h69.9
			c4,0,7.2-3.2,7.2-7.2c0-0.1,0-0.1,0-0.2V44.1h-26.5c-2.4,0-4.4-2-4.4-4.4c0-0.1,0-0.3,0-0.4C158.4,36.9,160.4,35.2,162.7,35.3"/>
		<path class="st2" d="M130.9,37.6c-0.2,0-0.3-0.2-0.3-0.4c0-0.1,0.1-0.3,0.3-0.3c2.2,0,4.1-1.8,4.1-4.1c0-0.2,0.2-0.3,0.3-0.3
			c0.2,0,0.4,0.2,0.4,0.3v0C135.6,35.4,133.5,37.6,130.9,37.6"/>
		<path class="st2" d="M114.9,7h-2.6c-1.3,0-2.3-1.1-2.3-2.3c0-0.2,0.2-0.3,0.3-0.3c0.2,0,0.3,0.2,0.3,0.3c0,0.9,0.7,1.7,1.7,1.7
			l0,0h2.6c0.2,0,0.3,0.2,0.3,0.3C115.2,6.8,115.1,7,114.9,7C114.9,7,114.9,7,114.9,7"/>
		<path class="st2" d="M101.8,24.6h-9.3c-1.3,0-2.3-1.1-2.3-2.4c0-0.2,0.1-0.3,0.3-0.3c0,0,0,0,0,0c0.2,0,0.3,0.2,0.3,0.4
			c0,0.9,0.7,1.7,1.7,1.7l0,0h9.3c0.2,0,0.3,0.2,0.3,0.3C102.1,24.4,101.9,24.6,101.8,24.6"/>
		<path class="st2" d="M118.8,42.2H99.9c-1.3,0-2.3-1.1-2.3-2.3c0-0.2,0.2-0.3,0.3-0.3c0.2,0,0.3,0.2,0.3,0.3c0,0.9,0.7,1.7,1.7,1.7
			l0,0h18.9c0.2,0,0.3,0.2,0.3,0.3C119.1,42,119,42.2,118.8,42.2"/>
		<path class="st2" d="M130.8,77.6h-18.6c-1.3,0-2.3-1.1-2.3-2.3c0-0.2,0.2-0.3,0.3-0.3c0.2,0,0.3,0.2,0.3,0.3
			c0,0.9,0.7,1.7,1.7,1.7h0h18.6c0.2,0,0.4,0.1,0.4,0.3c0,0.2-0.1,0.4-0.3,0.4C130.9,77.6,130.8,77.6,130.8,77.6"/>
		<path class="st2" d="M132.5,72.4c-0.2,0-0.4-0.2-0.4-0.3c0,0,0,0,0,0c0-0.2,0.2-0.3,0.4-0.3c2.2,0,4.1-1.8,4.1-4.1
			c0-0.2,0.2-0.3,0.4-0.3l0,0c0.2,0,0.3,0.2,0.3,0.3C137.2,70.3,135.1,72.4,132.5,72.4"/>
		<path class="st0" d="M128.9,26.4h-8.5c-2.4,0-4.4,2-4.4,4.4c0,2.4,2,4.4,4.4,4.4h8.5c2.4,0,4.4-2,4.4-4.4
			C133.3,28.4,131.3,26.4,128.9,26.4"/>
		<path class="st0" d="M134.3,48.5c0,2.4,2,4.4,4.4,4.4s4.4-2,4.4-4.4c0-2.4-2-4.4-4.4-4.4C136.3,44.1,134.3,46,134.3,48.5
			C134.3,48.5,134.3,48.5,134.3,48.5"/>
		<g class="st3">
			<path class="st0" d="M16.9,128.5v-12.3l-5.3,8h-0.1l-5.2-7.9v12.2H2.3v-18.8h4.5l4.9,7.9l4.9-7.9h4.5v18.8H16.9z"/>
			<path class="st0" d="M25.6,128.5v-18.8h14.2v3.7H29.7v3.8h8.9v3.7h-8.9v3.9h10.2v3.7H25.6z"/>
			<path class="st0" d="M50.9,128.5h-7.3v-18.8h7.3c5.9,0,10,4.1,10,9.3v0.1C60.9,124.4,56.8,128.5,50.9,128.5z M56.6,119.1
				c0-3.3-2.3-5.7-5.7-5.7h-3.2v11.3h3.2C54.3,124.8,56.6,122.5,56.6,119.1L56.6,119.1z"/>
			<path class="st0" d="M64.8,128.5v-18.8h4.1v18.8H64.8z"/>
			<path class="st0" d="M87.6,128.5l-1.7-4.2h-7.9l-1.7,4.2H72l8.1-18.9h3.8l8.1,18.9H87.6z M81.9,114.5l-2.5,6.1h5L81.9,114.5z"/>
		</g>
		<g class="st3">
			<path class="st1" d="M101.8,128.8c-5.5,0-9.6-4.3-9.6-9.7v-0.1c0-5.3,4-9.7,9.8-9.7c3.5,0,5.7,1.2,7.4,2.9l-2.6,3
				c-1.5-1.3-2.9-2.1-4.8-2.1c-3.2,0-5.5,2.6-5.5,5.9v0.1c0,3.2,2.2,5.9,5.5,5.9c2.1,0,3.5-0.9,4.9-2.2l2.6,2.7
				C107.5,127.5,105.4,128.8,101.8,128.8z"/>
		</g>
		<g class="st3">
			<path class="st1" d="M126.4,128.5l-1.7-4.2h-7.9l-1.7,4.2h-4.2l8.1-18.9h3.8l8.1,18.9H126.4z M120.7,114.5l-2.5,6.1h5
				L120.7,114.5z"/>
			<path class="st1" d="M146.9,128.5l-9.1-12v12h-4.1v-18.8h3.8l8.8,11.6v-11.6h4.1v18.8H146.9z"/>
			<path class="st1" d="M168.1,128.5l-9.1-12v12h-4.1v-18.8h3.8l8.8,11.6v-11.6h4.1v18.8H168.1z"/>
			<path class="st1" d="M176.3,128.5v-18.8h4.1v18.8H176.3z"/>
			<path class="st1" d="M194.1,128.5h-8.9v-18.8h8.7c3.8,0,6.2,1.9,6.2,4.9v0.1c0,2.1-1.1,3.3-2.5,4.1c2.2,0.8,3.5,2.1,3.5,4.6v0.1
				C201.1,126.8,198.3,128.5,194.1,128.5z M196,115.3c0-1.2-1-1.9-2.7-1.9h-4.1v4h3.8C194.8,117.3,196,116.7,196,115.3L196,115.3z
				 M197,122.8c0-1.3-0.9-2-3.1-2h-4.8v4.1h4.9C195.9,124.9,197,124.2,197,122.8L197,122.8z"/>
			<path class="st1" d="M218.5,128.5l-1.7-4.2h-7.9l-1.7,4.2h-4.2l8.1-18.9h3.8l8.1,18.9H218.5z M212.8,114.5l-2.5,6.1h5
				L212.8,114.5z"/>
			<path class="st1" d="M225.7,128.5v-18.8h4.1v15h9.4v3.8H225.7z"/>
		</g>
	</g>
</g>
</svg>
