<?xml version="1.0" encoding="utf-8"?>
<!-- Generator: Adobe Illustrator 25.2.1, SVG Export Plug-In . SVG Version: 6.00 Build 0)  -->
<svg version="1.1" id="Layer_1" xmlns="http://www.w3.org/2000/svg" xmlns:xlink="http://www.w3.org/1999/xlink" x="0px" y="0px"
	 viewBox="0 0 150.1 150.1" style="enable-background:new 0 0 150.1 150.1;" xml:space="preserve">
<style type="text/css">
	.st0{fill:#72C84C;}
	.st1{fill:none;}
</style>
<g id="Layer_2_1_">
	<g id="Layer_1-2">
		<path class="st0" d="M144.3,61.4c0,15.6,0,31.3,0,46.9c0,9.7-3,18-11.1,23.9c-9.4,7-22.3,7-31.7,0.1c-9.4-6.6-13.4-17.4-10.4-28
			c3.3-11.8,13-19.5,25.6-20.3c3.5-0.2,7-0.2,10.5,0c2.7,0.2,3.4-0.8,3.4-3.4c-0.1-11-0.1-22,0-33c0-2.5-0.8-3.2-3.2-2.8
			c-21.8,3.8-43.6,7.5-65.4,11.2c-3.1,0.5-2.9,2.6-2.9,4.8c0.1,18.8,0.2,37.6,0.2,56.4c0,4.7-0.1,9.3-1.5,13.8
			c-3.9,12-17.4,20.3-29.9,18.5c-11.8-1.7-21.8-13.4-22.4-25.9C5,111.1,13.6,100,26.4,97c4.6-1.1,9.3-1.3,13.9-0.7
			c4.7,0.6,5.4-1.2,5.4-5.4c-0.2-20.8-0.2-41.6-0.2-62.4c0-12.7,1.2-13.7,13.8-15.8C82.9,9,106.4,4.7,130,0.6
			c1.2-0.2,2.3-0.4,3.5-0.5c7.7-0.6,9.2,0.6,10.4,8.4c0.9,6,0.5,12,0.5,18c0,5.8-0.1,11.7-0.2,17.5s0,11.7,0,17.5L144.3,61.4z"/>
		<rect y="0" class="st1" width="150.1" height="150.1"/>
	</g>
</g>
</svg>
